<svg id="visual" viewBox="0 0 960 540" width="960" height="540" xmlns="http://www.w3.org/2000/svg" xmlns:xlink="http://www.w3.org/1999/xlink" version="1.1"><rect x="0" y="0" width="960" height="540" fill="#ffffff"></rect><path d="M0 377L22.8 361.7C45.7 346.3 91.3 315.7 137 301C182.7 286.3 228.3 287.7 274 302C319.7 316.3 365.3 343.7 411.2 344.3C457 345 503 319 548.8 302.3C594.7 285.7 640.3 278.3 686 284C731.7 289.7 777.3 308.3 823 315.8C868.7 323.3 914.3 319.7 937.2 317.8L960 316L960 541L937.2 541C914.3 541 868.7 541 823 541C777.3 541 731.7 541 686 541C640.3 541 594.7 541 548.8 541C503 541 457 541 411.2 541C365.3 541 319.7 541 274 541C228.3 541 182.7 541 137 541C91.3 541 45.7 541 22.8 541L0 541Z" fill="#fa7268"></path><path d="M0 318L22.8 324.7C45.7 331.3 91.3 344.7 137 357.7C182.7 370.7 228.3 383.3 274 386.2C319.7 389 365.3 382 411.2 378.8C457 375.7 503 376.3 548.8 376.5C594.7 376.7 640.3 376.3 686 375.8C731.7 375.3 777.3 374.7 823 367.7C868.7 360.7 914.3 347.3 937.2 340.7L960 334L960 541L937.2 541C914.3 541 868.7 541 823 541C777.3 541 731.7 541 686 541C640.3 541 594.7 541 548.8 541C503 541 457 541 411.2 541C365.3 541 319.7 541 274 541C228.3 541 182.7 541 137 541C91.3 541 45.7 541 22.8 541L0 541Z" fill="#ef5f67"></path><path d="M0 391L22.8 399.3C45.7 407.7 91.3 424.3 137 425.7C182.7 427 228.3 413 274 409C319.7 405 365.3 411 411.2 405.8C457 400.7 503 384.3 548.8 380.8C594.7 377.3 640.3 386.7 686 395.3C731.7 404 777.3 412 823 407.5C868.7 403 914.3 386 937.2 377.5L960 369L960 541L937.2 541C914.3 541 868.7 541 823 541C777.3 541 731.7 541 686 541C640.3 541 594.7 541 548.8 541C503 541 457 541 411.2 541C365.3 541 319.7 541 274 541C228.3 541 182.7 541 137 541C91.3 541 45.7 541 22.8 541L0 541Z" fill="#e34c67"></path><path d="M0 451L22.8 446.2C45.7 441.3 91.3 431.7 137 427.3C182.7 423 228.3 424 274 427.8C319.7 431.7 365.3 438.3 411.2 446.2C457 454 503 463 548.8 458.3C594.7 453.7 640.3 435.3 686 432.8C731.7 430.3 777.3 443.7 823 448.5C868.7 453.3 914.3 449.7 937.2 447.8L960 446L960 541L937.2 541C914.3 541 868.7 541 823 541C777.3 541 731.7 541 686 541C640.3 541 594.7 541 548.8 541C503 541 457 541 411.2 541C365.3 541 319.7 541 274 541C228.3 541 182.7 541 137 541C91.3 541 45.7 541 22.8 541L0 541Z" fill="#d53867"></path><path d="M0 483L22.8 484.7C45.7 486.3 91.3 489.7 137 489.5C182.7 489.3 228.3 485.7 274 487.7C319.7 489.7 365.3 497.3 411.2 493.5C457 489.7 503 474.3 548.8 475C594.7 475.7 640.3 492.3 686 494C731.7 495.7 777.3 482.3 823 482C868.7 481.7 914.3 494.3 937.2 500.7L960 507L960 541L937.2 541C914.3 541 868.7 541 823 541C777.3 541 731.7 541 686 541C640.3 541 594.7 541 548.8 541C503 541 457 541 411.2 541C365.3 541 319.7 541 274 541C228.3 541 182.7 541 137 541C91.3 541 45.7 541 22.8 541L0 541Z" fill="#c62368"></path></svg>