<svg id="visual" viewBox="0 0 1000 540" width="1000" height="540" xmlns="http://www.w3.org/2000/svg" xmlns:xlink="http://www.w3.org/1999/xlink" version="1.1"><rect x="0" y="0" width="1000" height="540" fill="#e7e5e5"></rect><g transform="translate(29.894642531620747 541.4994917127166)"><path d="M231.6 -401.4C311.2 -355.1 394.6 -315.5 442.2 -249.8C489.7 -184 501.3 -92 493.6 -4.5C485.8 83 458.5 166 415.8 240C373 314.1 314.8 379.2 242.9 424.7C171 470.2 85.5 496.1 -1.1 498C-87.7 499.8 -175.3 477.7 -243.5 430C-311.6 382.4 -360.2 309.2 -414.5 233.3C-468.8 157.3 -528.9 78.7 -548.5 -11.3C-568 -101.2 -547.1 -202.5 -487 -268.5C-426.9 -334.4 -327.7 -365.1 -240 -406.8C-152.3 -448.5 -76.2 -501.3 -0.1 -501.1C75.9 -500.9 151.9 -447.7 231.6 -401.4" fill="#FFFFFF"></path></g></svg>