<svg id="visual" viewBox="0 0 600 900" width="600" height="900" xmlns="http://www.w3.org/2000/svg" xmlns:xlink="http://www.w3.org/1999/xlink" version="1.1"><rect x="0" y="0" width="600" height="900" fill="#e7e5e5"></rect><g transform="translate(620.5596538703339 -36.39627578641608)"><path d="M299.4 -528.2C402.4 -459.1 510.4 -408 555.1 -323C599.7 -238 581.1 -119 576.2 -2.8C571.3 113.3 580.1 226.7 538.5 317C496.9 407.4 405 474.8 306.8 554.3C208.7 633.8 104.3 725.4 -22.8 764.9C-150 804.5 -300 791.9 -401.9 714.6C-503.8 637.3 -557.6 495.1 -586.3 365.2C-614.9 235.3 -618.5 117.7 -622.7 -2.4C-626.8 -122.5 -631.7 -245 -590.4 -353C-549 -460.9 -461.5 -554.4 -355.4 -621.8C-249.3 -689.2 -124.7 -730.6 -13.3 -707.6C98.2 -684.7 196.3 -597.4 299.4 -528.2" fill="#ffffff"></path></g></svg>