<svg id="visual" viewBox="0 0 3000 2000" width="3000" height="2000" xmlns="http://www.w3.org/2000/svg" xmlns:xlink="http://www.w3.org/1999/xlink" version="1.1"><rect x="0" y="0" width="3000" height="2000" fill="#e1e1e1"></rect><path d="M0 1220L62.5 1195.5C125 1171 250 1122 375 1080.7C500 1039.3 625 1005.7 750 1012.7C875 1019.7 1000 1067.3 1125 1079.8C1250 1092.3 1375 1069.7 1500 1076.3C1625 1083 1750 1119 1875 1173.5C2000 1228 2125 1301 2250 1331.5C2375 1362 2500 1350 2625 1285.3C2750 1220.7 2875 1103.3 2937.5 1044.7L3000 986L3000 2001L2937.5 2001C2875 2001 2750 2001 2625 2001C2500 2001 2375 2001 2250 2001C2125 2001 2000 2001 1875 2001C1750 2001 1625 2001 1500 2001C1375 2001 1250 2001 1125 2001C1000 2001 875 2001 750 2001C625 2001 500 2001 375 2001C250 2001 125 2001 62.5 2001L0 2001Z" fill="#FFFFFF" stroke-linecap="round" stroke-linejoin="miter"></path></svg>