<svg id="visual" viewBox="0 0 1000 540" width="1000" height="540" xmlns="http://www.w3.org/2000/svg" xmlns:xlink="http://www.w3.org/1999/xlink" version="1.1"><rect x="0" y="0" width="1000" height="540" fill="#e7e5e5"></rect><g transform="translate(1044.4053329631183 21.777312116359155)"><path d="M236.8 -434C302.5 -372.1 348.6 -300 389.8 -225.9C431.1 -151.9 467.5 -75.9 473.2 3.3C478.9 82.5 453.8 165 411.5 237.2C369.1 309.3 309.6 371.2 238.1 417.3C166.7 463.3 83.3 493.7 -7.1 505.9C-97.5 518.2 -195 512.4 -262.1 463.8C-329.2 415.2 -366 323.9 -418.5 239.4C-471 155 -539.2 77.5 -557.6 -10.6C-575.9 -98.7 -544.3 -197.3 -489.7 -278.2C-435.1 -359 -357.6 -422 -272.1 -472.5C-186.7 -523 -93.3 -561 -3.9 -554.2C85.5 -547.4 171 -495.8 236.8 -434" fill="#ffffff"></path></g></svg>