<svg id="visual" viewBox="0 0 1000 540" width="1000" height="540" xmlns="http://www.w3.org/2000/svg" xmlns:xlink="http://www.w3.org/1999/xlink" version="1.1"><rect x="0" y="0" width="1000" height="540" fill="#e7e5e5"></rect><g transform="translate(989.2234174379663 30.765165497465233)"><path d="M288.3 -488.8C369.5 -452.4 428.5 -366.9 486.3 -277.3C544 -187.7 600.5 -93.8 591.9 -5C583.2 83.8 509.4 167.7 435.1 228.6C360.7 289.5 285.8 327.4 213.2 368.2C140.6 408.9 70.3 452.5 0.1 452.3C-70.2 452.2 -140.3 408.4 -237.8 382C-335.2 355.6 -459.9 346.5 -520.5 285.8C-581 225 -577.5 112.5 -560.3 9.9C-543.2 -92.7 -512.3 -185.3 -465.6 -270.1C-418.8 -354.8 -356.2 -431.6 -275.9 -468.6C-195.7 -505.6 -97.8 -502.8 2.8 -507.7C103.5 -512.6 207 -525.2 288.3 -488.8" fill="#ffffff"></path></g></svg>