<svg id="visual" viewBox="0 0 1000 540" width="1000" height="540" xmlns="http://www.w3.org/2000/svg" xmlns:xlink="http://www.w3.org/1999/xlink" version="1.1"><rect x="0" y="0" width="1000" height="540" fill="#ffffff"></rect><path d="M0 449L27.8 448.2C55.7 447.3 111.3 445.7 166.8 428.5C222.3 411.3 277.7 378.7 333.2 364.8C388.7 351 444.3 356 500 369.8C555.7 383.7 611.3 406.3 666.8 408C722.3 409.7 777.7 390.3 833.2 398.2C888.7 406 944.3 441 972.2 458.5L1000 476L1000 541L972.2 541C944.3 541 888.7 541 833.2 541C777.7 541 722.3 541 666.8 541C611.3 541 555.7 541 500 541C444.3 541 388.7 541 333.2 541C277.7 541 222.3 541 166.8 541C111.3 541 55.7 541 27.8 541L0 541Z" fill="#efeeee"></path><path d="M0 488L27.8 482C55.7 476 111.3 464 166.8 466C222.3 468 277.7 484 333.2 490.5C388.7 497 444.3 494 500 478.3C555.7 462.7 611.3 434.3 666.8 430.7C722.3 427 777.7 448 833.2 449.2C888.7 450.3 944.3 431.7 972.2 422.3L1000 413L1000 541L972.2 541C944.3 541 888.7 541 833.2 541C777.7 541 722.3 541 666.8 541C611.3 541 555.7 541 500 541C444.3 541 388.7 541 333.2 541C277.7 541 222.3 541 166.8 541C111.3 541 55.7 541 27.8 541L0 541Z" fill="#d8d5d5"></path></svg>